<svg width="93" height="24" viewBox="0 0 93 24" fill="none" xmlns="http://www.w3.org/2000/svg">
<mask id="mask0_895_3771" style="mask-type:alpha" maskUnits="userSpaceOnUse" x="0" y="0" width="93" height="24">
<rect width="93" height="24" fill="#C4C4C4"/>
</mask>
<g mask="url(#mask0_895_3771)">
<path d="M8.47484 11.9999L7.02318 13.4515L5.57153 11.9999L7.02318 10.5482L8.47484 11.9999ZM12.0001 8.47451L14.4887 10.963L15.9402 9.51138L12.0001 5.57129L8.06009 9.51138L9.51165 10.963L12.0001 8.47451ZM16.9771 10.5482L15.5255 11.9999L16.9771 13.4515L18.4287 11.9999L16.9771 10.5482ZM12.0001 15.5252L9.51165 13.0367L8.06009 14.4883L12.0001 18.4284L15.9402 14.4883L14.4887 13.0367L12.0001 15.5252ZM12.0001 13.4515L13.4518 11.9999L12.0001 10.5482L10.5486 11.9999L12.0001 13.4515Z" fill="#8A94A6"/>
<path d="M37.5062 9.9563V9.93235C37.5062 8.8104 36.9067 8.24957 35.9354 7.87955C36.5348 7.54537 37.0386 7.02024 37.0386 6.07734V6.05355C37.0386 4.74063 35.9834 3.89322 34.2685 3.89322H30.3713V12.2478H34.3645C36.2591 12.2478 37.5062 11.484 37.5062 9.9563ZM35.2038 6.38772C35.2038 7.00834 34.6881 7.27083 33.8728 7.27083H32.1701V5.50447H33.9927C34.7722 5.50447 35.2038 5.81485 35.2038 6.36393V6.38772ZM35.6716 9.72949C35.6716 10.3501 35.1798 10.6365 34.3645 10.6365H32.1701V8.79865H34.3045C35.2518 8.79865 35.6716 9.14472 35.6716 9.70555V9.72949ZM41.3788 12.2478V3.89322H39.5321V12.2478H41.3788ZM51.3055 12.2478V3.89322H49.4829V9.03734L45.5496 3.89322H43.8469V12.2478H45.6696V6.93666L49.7348 12.2478H51.3055ZM61.5349 12.2478L57.9374 3.83358H56.2347L52.6372 12.2478H54.5199L55.2874 10.3741H58.8368L59.6042 12.2478H61.5349ZM58.1772 8.75076H55.9469L57.0621 6.0415L58.1772 8.75076ZM70.3373 12.2478V3.89322H68.5145V9.03734L64.5814 3.89322H62.8785V12.2478H64.7012V6.93666L68.7664 12.2478H70.3373ZM79.871 10.8992L78.6959 9.7176C78.0364 10.3144 77.4488 10.6963 76.4895 10.6963C75.0504 10.6963 74.0551 9.50284 74.0551 8.07051V8.04671C74.0551 6.61437 75.0745 5.44483 76.4895 5.44483C77.3289 5.44483 77.9884 5.8028 78.636 6.38772L79.8111 5.03897C79.0317 4.27513 78.0842 3.75 76.5015 3.75C73.9232 3.75 72.1246 5.69542 72.1246 8.07051V8.0943C72.1246 10.4933 73.9594 12.391 76.4295 12.391C78.0483 12.391 79.0076 11.8183 79.871 10.8992ZM87.75 12.2478V10.6128H83.1933V8.85828H87.1505V7.22309H83.1933V5.52841H87.69V3.89322H81.3587V12.2478H87.75Z" fill="#8A94A6"/>
<path d="M31.2057 16.2829C31.2057 15.9093 31.5411 15.6153 32.116 15.6153C32.6271 15.6153 33.1301 15.814 33.6332 16.1876L34.1602 15.4485C33.5933 14.9955 32.9465 14.749 32.132 14.749C31.0221 14.749 30.2236 15.4007 30.2236 16.3704C30.2236 17.4036 30.8943 17.7532 32.0841 18.0393C33.1221 18.2777 33.3457 18.4923 33.3457 18.8976C33.3457 19.3268 32.9624 19.6049 32.3556 19.6049C31.6609 19.6049 31.1259 19.3427 30.5909 18.8817L30 19.5811C30.6707 20.1772 31.4772 20.4712 32.3316 20.4712C33.5054 20.4712 34.3279 19.8514 34.3279 18.8023C34.3279 17.8725 33.713 17.4511 32.5313 17.1652C31.4613 16.9108 31.2057 16.72 31.2057 16.2829Z" fill="#8A94A6"/>
<path d="M39.9944 16.4017V20.3913H40.9766V14.8281H39.9306L38.2297 17.4587L36.529 14.8281H35.4829V20.3913H36.4491V16.4175L38.1978 19.0243H38.2297L39.9944 16.4017Z" fill="#8A94A6"/>
<path d="M45.3057 14.7881H44.3954L41.936 20.3912H42.9422L43.5171 19.0481H46.1601L46.7271 20.3912H47.7652L45.3057 14.7881ZM45.8009 18.1818H43.8764L44.8346 15.9564L45.8009 18.1818Z" fill="#8A94A6"/>
<path d="M53.4668 20.3913L51.9576 18.2853C52.7401 18.0707 53.2911 17.5143 53.2911 16.5924C53.2911 15.5036 52.5006 14.8281 51.215 14.8281H48.7236V20.3913H49.7058V18.4522H50.9356L52.3089 20.3913H53.4668ZM52.2931 16.648C52.2931 17.2203 51.8458 17.5859 51.1431 17.5859H49.7058V15.7182H51.1352C51.8618 15.7182 52.2931 16.036 52.2931 16.648Z" fill="#8A94A6"/>
<path d="M56.8344 15.7341H58.607V14.8281H54.0715V15.7341H55.8441V20.3913H56.8344V15.7341Z" fill="#8A94A6"/>
<path d="M66.9054 19.501L66.2745 18.8652C65.7954 19.3102 65.3563 19.5885 64.6695 19.5885C63.5995 19.5885 62.825 18.6982 62.825 17.6016C62.825 16.5047 63.5995 15.6306 64.6695 15.6306C65.3083 15.6306 65.7875 15.9087 66.2346 16.322L66.8655 15.5987C66.3305 15.0901 65.7076 14.7324 64.6776 14.7324C62.9848 14.7324 61.7949 16.0279 61.7949 17.6175C61.7949 19.2228 63.0087 20.4865 64.6376 20.4865C65.6837 20.4865 66.3225 20.105 66.9054 19.501Z" fill="#8A94A6"/>
<path d="M71.5868 18.0468V20.3913H72.569V14.8281H71.5868V17.1407H68.9199V14.8281H67.9377V20.3913H68.9199V18.0468H71.5868Z" fill="#8A94A6"/>
<path d="M76.8952 14.7881H75.9849L73.5254 20.3912H74.5316L75.1064 19.0481H77.7496L78.3165 20.3912H79.3546L76.8952 14.7881ZM77.3902 18.1818H75.4658L76.4241 15.9564L77.3902 18.1818Z" fill="#8A94A6"/>
<path d="M80.3689 14.8281V20.3913H81.3511V14.8281H80.3689Z" fill="#8A94A6"/>
<path d="M86.7519 18.6747L83.7575 14.8281H82.8472V20.3913H83.8133V16.4334L86.8957 20.3913H87.7181V14.8281H86.7519V18.6747Z" fill="#8A94A6"/>
</g>
</svg>
