<svg width="160" height="16" viewBox="0 0 160 16" fill="none" xmlns="http://www.w3.org/2000/svg">
<path d="M0 8C0 12.4324 3.5508 16 8.4492 16C11.8075 16 13.861 14.3568 15.0374 12.7135C15.7433 11.7405 16.2567 10.6378 16.5775 9.40541H11.6578C11.5294 9.83784 11.3369 10.227 11.0588 10.5514C10.5668 11.1351 9.79679 11.6757 8.4492 11.6757C6.39572 11.6757 5.02674 10.2703 5.02674 8C5.02674 5.72973 6.39572 4.32432 8.4492 4.32432C9.66845 4.32432 10.4385 4.8 10.9305 5.25405C11.2086 5.51351 11.4011 5.81622 11.5508 6.16216H16.4706C16.1711 5.01622 15.6791 3.97838 14.9947 3.09189C13.861 1.55676 11.7861 0 8.4492 0C3.5508 0 0 3.56757 0 8Z" fill="white"/>
<path d="M27.058 15.5676H31.8708V11.3514H34.1168L36.4698 15.5676H41.3895L38.5018 10.3784C38.9938 10.1405 39.443 9.7946 39.828 9.38379C40.4911 8.69189 41.1756 7.58919 41.1756 5.94595C41.1756 2.81081 38.8227 0.432432 35.0794 0.432432H27.058V15.5676ZM31.8708 7.35135V4.54054H34.6516C35.6141 4.54054 36.2558 5.18919 36.2558 5.94595C36.2558 6.7027 35.6141 7.35135 34.6516 7.35135H31.8708Z" fill="white"/>
<path d="M49.9507 0.432432L55.4052 10.1622V15.5676H60.2181V10.1622L65.6726 0.432432H60.7528L57.9721 5.83784H57.6512L54.8705 0.432432H49.9507Z" fill="white"/>
<path d="M75.295 15.5676H80.1078V11.8919H83.1024C86.9527 11.8919 89.4126 9.38378 89.4126 6.16216C89.4126 2.94054 86.9527 0.432432 83.1024 0.432432H75.295V15.5676ZM80.1078 7.78378V4.54054H82.6746C83.8725 4.54054 84.4928 5.18919 84.4928 6.16216C84.4928 7.13514 83.8725 7.78378 82.6746 7.78378H80.1078Z" fill="white"/>
<path d="M98.7199 4.75676H103.319V15.5676H108.132V4.75676H112.731V0.432432H98.7199V4.75676Z" fill="white"/>
<path d="M122.78 15.5676H134.759V11.4595H127.593V9.72973H133.261V6.27027H127.593V4.54054H134.759V0.432432H122.78V15.5676Z" fill="white"/>
<path d="M144.278 15.5676H149.412L151.658 10.1622H152.62L154.866 15.5676H160L156.257 8L159.572 0.432432H154.545L152.62 5.83784H151.658L149.733 0.432432H144.706L148.021 8L144.278 15.5676Z" fill="white"/>
</svg>
