<svg width="93" height="24" viewBox="0 0 93 24" fill="none" xmlns="http://www.w3.org/2000/svg">
<mask id="mask0_895_3728" style="mask-type:alpha" maskUnits="userSpaceOnUse" x="0" y="0" width="93" height="24">
<rect width="93" height="24" fill="#C4C4C4"/>
</mask>
<g mask="url(#mask0_895_3728)">
<path d="M10.4203 8.8821H12.2379L12.8635 6H14.9178L14.3006 8.8821H16.4141L17.0312 6H19.094L18.4684 8.8821H20.4128L19.9732 10.917H18.0373L17.5892 13.048H19.4575L19.0264 15.083H17.1581L16.5325 18H14.4697L15.0953 15.083H12.9818L12.3562 18H10.3019L10.919 15.083H9L9.46497 13.048H11.3502L11.8067 10.917H9.9553L10.4203 8.8821ZM13.413 13.048H15.5264L15.9745 10.917H13.861L13.413 13.048Z" fill="#8A94A6"/>
<path d="M27.1769 12.0749H33.3516V7.98054H35.1101V17.9998H33.3516V13.9054H27.1769V17.9998H25.4185V7.98054H27.1769V12.0749Z" fill="#8A94A6"/>
<path d="M44.4838 15.4984C44.4838 15.75 44.441 16.0225 44.3553 16.3159C44.2696 16.6047 44.1299 16.8749 43.936 17.1264C43.7466 17.3733 43.4964 17.5805 43.1853 17.7482C42.8787 17.9159 42.5044 17.9998 42.0626 17.9998H38.8907C38.6472 17.9998 38.3834 17.9555 38.0994 17.867C37.8198 17.7785 37.5583 17.6364 37.3149 17.4408C37.0759 17.2405 36.8752 16.982 36.7129 16.6653C36.5506 16.3439 36.4695 15.9549 36.4695 15.4984C36.4695 15.2469 36.5123 14.9744 36.598 14.681C36.6836 14.3875 36.8211 14.1174 37.0105 13.8705C37.2044 13.619 37.4546 13.4094 37.7612 13.2417C38.0723 13.074 38.4488 12.9902 38.8907 12.9902H42.0626V14.7229H38.8907C38.6517 14.7229 38.4668 14.7998 38.3361 14.9535C38.2053 15.1025 38.14 15.2888 38.14 15.5124C38.14 15.75 38.2144 15.9363 38.3631 16.0714C38.5164 16.2018 38.6968 16.267 38.9042 16.267H42.0626C42.3016 16.267 42.4864 16.1925 42.6172 16.0434C42.7479 15.8944 42.8133 15.7081 42.8133 15.4845V12.9482C42.8133 12.7107 42.7412 12.522 42.5969 12.3823C42.4571 12.2426 42.279 12.1727 42.0626 12.1727H38.2008V10.4469H42.0626C42.3061 10.4469 42.5676 10.4912 42.8471 10.5797C43.1312 10.6682 43.3927 10.8126 43.6316 11.0129C43.8751 11.2085 44.078 11.467 44.2403 11.7884C44.4026 12.1051 44.4838 12.4918 44.4838 12.9482V15.4984Z" fill="#8A94A6"/>
<path d="M53.0527 15.4495C53.0527 15.7616 53.0144 16.0434 52.9377 16.295C52.8611 16.5418 52.7597 16.7607 52.6334 16.9517C52.5072 17.138 52.3606 17.2987 52.1938 17.4338C52.027 17.5642 51.8511 17.6714 51.6663 17.7552C51.4859 17.8391 51.3011 17.9019 51.1117 17.9439C50.9268 17.9811 50.751 17.9998 50.5842 17.9998H45.8229V16.1832H50.5706C50.8096 16.1832 50.99 16.1203 51.1117 15.9945C51.2334 15.8688 51.2943 15.6871 51.2943 15.4495C51.2718 14.9651 51.035 14.7229 50.5842 14.7229H47.8586C47.4709 14.7229 47.1417 14.653 46.8712 14.5133C46.6007 14.3736 46.3797 14.1989 46.2084 13.9893C46.0416 13.7797 45.9198 13.5538 45.8432 13.3115C45.7711 13.0693 45.735 12.8434 45.735 12.6338C45.735 12.2286 45.8049 11.8886 45.9446 11.6137C46.0844 11.3343 46.2603 11.1083 46.4722 10.936C46.6841 10.7637 46.914 10.6402 47.162 10.5657C47.41 10.4865 47.6422 10.4469 47.8586 10.4469H52.1803V12.2635H47.8721C47.782 12.2635 47.7098 12.2752 47.6557 12.2984C47.6061 12.3171 47.5678 12.345 47.5407 12.3823C47.5182 12.4149 47.5047 12.4522 47.5002 12.4941C47.4957 12.5313 47.4934 12.5686 47.4934 12.6059C47.4979 12.6804 47.5114 12.7386 47.534 12.7805C47.5565 12.8225 47.5836 12.8527 47.6151 12.8714C47.6512 12.89 47.6895 12.9017 47.7301 12.9063C47.7752 12.9063 47.818 12.9063 47.8586 12.9063H50.5842C51.035 12.9063 51.4183 12.9902 51.7339 13.1578C52.0495 13.3255 52.3043 13.5375 52.4981 13.7936C52.692 14.0452 52.8318 14.32 52.9175 14.6181C53.0076 14.9162 53.0527 15.1934 53.0527 15.4495Z" fill="#8A94A6"/>
<path d="M62.4197 17.9998H60.6613V12.9902C60.6613 12.7526 60.6027 12.5733 60.4854 12.4522C60.3682 12.3264 60.1924 12.2635 59.9579 12.2635H56.786V10.4469H59.9579C60.1247 10.4469 60.3006 10.4679 60.4854 10.5098C60.6703 10.5471 60.8529 10.6076 61.0332 10.6915C61.2181 10.7753 61.3939 10.8848 61.5608 11.0198C61.7276 11.1503 61.8741 11.311 62.0004 11.5019C62.1266 11.6883 62.2281 11.9049 62.3047 12.1517C62.3814 12.3986 62.4197 12.6781 62.4197 12.9902V17.9998ZM56.0759 17.9998H54.3174V7.25391H56.0759V17.9998Z" fill="#8A94A6"/>
<path d="M72.1992 13.9054H66.6467V12.0749H72.1992V13.9054ZM72.9905 17.9998H66.6467C66.4032 17.9998 66.1372 17.9555 65.8486 17.867C65.5601 17.7785 65.2918 17.6341 65.0438 17.4338C64.8003 17.2289 64.5952 16.9657 64.4284 16.6443C64.266 16.3182 64.1849 15.92 64.1849 15.4495V8.89583C64.1849 8.77006 64.2074 8.65129 64.2525 8.5395C64.2976 8.42771 64.3585 8.32989 64.4351 8.24605C64.5163 8.1622 64.611 8.09699 64.7192 8.05041C64.8274 8.00383 64.9446 7.98054 65.0709 7.98054H72.9905V9.79714H65.9433V15.4495C65.9433 15.6871 66.0042 15.8688 66.1259 15.9945C66.2476 16.1203 66.4257 16.1832 66.6602 16.1832H72.9905V17.9998Z" fill="#8A94A6"/>
<path d="M82.8512 10.4469L79.6928 14.0102L83.2502 17.9998H80.829L78.489 15.3657L76.1489 17.9998H73.7209L77.2716 13.9963L74.1267 10.4469H76.5344L78.4754 12.6338L80.43 10.4469H82.8512Z" fill="#8A94A6"/>
</g>
</svg>
