<svg width="142" height="72" viewBox="0 0 142 72" fill="none" xmlns="http://www.w3.org/2000/svg">
<g filter="url(#filter0_d_895_3554)">
<path d="M36.796 24.632C37.308 24.752 37.712 25 38.008 25.376C38.312 25.752 38.464 26.188 38.464 26.684C38.464 27.412 38.22 27.98 37.732 28.388C37.252 28.796 36.56 29 35.656 29H31.708V20.516H35.56C36.424 20.516 37.092 20.704 37.564 21.08C38.036 21.456 38.272 21.992 38.272 22.688C38.272 23.2 38.136 23.628 37.864 23.972C37.592 24.308 37.236 24.528 36.796 24.632ZM33.76 23.984H35.104C35.816 23.984 36.172 23.68 36.172 23.072C36.172 22.464 35.808 22.16 35.08 22.16H33.76V23.984ZM35.224 27.332C35.984 27.332 36.364 27.02 36.364 26.396C36.364 26.092 36.264 25.856 36.064 25.688C35.864 25.512 35.58 25.424 35.212 25.424H33.76V27.332H35.224ZM41.5998 22.148V23.924H44.4678V25.472H41.5998V27.356H44.8278V29H39.5478V20.516H44.8278V22.148H41.5998ZM52.0892 26.612C52.0892 27.06 51.9732 27.472 51.7412 27.848C51.5172 28.224 51.1812 28.524 50.7332 28.748C50.2932 28.972 49.7572 29.084 49.1252 29.084C48.1732 29.084 47.3892 28.852 46.7732 28.388C46.1572 27.924 45.8212 27.276 45.7652 26.444H47.9492C47.9812 26.764 48.0932 27.016 48.2852 27.2C48.4852 27.384 48.7372 27.476 49.0412 27.476C49.3052 27.476 49.5132 27.404 49.6652 27.26C49.8172 27.116 49.8932 26.924 49.8932 26.684C49.8932 26.468 49.8212 26.288 49.6772 26.144C49.5412 26 49.3692 25.884 49.1612 25.796C48.9532 25.7 48.6652 25.588 48.2972 25.46C47.7612 25.276 47.3212 25.1 46.9772 24.932C46.6412 24.756 46.3492 24.5 46.1012 24.164C45.8612 23.82 45.7412 23.376 45.7412 22.832C45.7412 22.328 45.8692 21.892 46.1252 21.524C46.3812 21.156 46.7332 20.876 47.1812 20.684C47.6372 20.484 48.1572 20.384 48.7412 20.384C49.6852 20.384 50.4332 20.608 50.9852 21.056C51.5452 21.504 51.8612 22.12 51.9332 22.904H49.7132C49.6732 22.624 49.5692 22.404 49.4012 22.244C49.2412 22.076 49.0212 21.992 48.7412 21.992C48.5012 21.992 48.3052 22.056 48.1532 22.184C48.0092 22.312 47.9372 22.5 47.9372 22.748C47.9372 22.948 48.0012 23.12 48.1292 23.264C48.2652 23.4 48.4332 23.512 48.6332 23.6C48.8332 23.688 49.1212 23.8 49.4972 23.936C50.0412 24.12 50.4852 24.304 50.8292 24.488C51.1732 24.664 51.4692 24.924 51.7172 25.268C51.9652 25.612 52.0892 26.06 52.0892 26.612ZM59.3196 20.516V22.148H57.0156V29H54.9516V22.148H52.6716V20.516H59.3196ZM66.4629 20.432C67.5429 20.432 68.4349 20.716 69.1389 21.284C69.8509 21.852 70.3109 22.62 70.5189 23.588H68.3469C68.1869 23.196 67.9389 22.888 67.6029 22.664C67.2749 22.44 66.8829 22.328 66.4269 22.328C65.8269 22.328 65.3429 22.548 64.9749 22.988C64.6069 23.428 64.4229 24.016 64.4229 24.752C64.4229 25.488 64.6069 26.076 64.9749 26.516C65.3429 26.948 65.8269 27.164 66.4269 27.164C66.8829 27.164 67.2749 27.052 67.6029 26.828C67.9389 26.604 68.1869 26.3 68.3469 25.916H70.5189C70.3109 26.876 69.8509 27.644 69.1389 28.22C68.4349 28.788 67.5429 29.072 66.4629 29.072C65.6389 29.072 64.9149 28.892 64.2909 28.532C63.6669 28.164 63.1829 27.652 62.8389 26.996C62.5029 26.34 62.3349 25.592 62.3349 24.752C62.3349 23.912 62.5029 23.164 62.8389 22.508C63.1829 21.852 63.6669 21.344 64.2909 20.984C64.9149 20.616 65.6389 20.432 66.4629 20.432ZM79.0009 20.516V29H76.9369V25.46H73.7209V29H71.6689V20.516H73.7209V23.804H76.9369V20.516H79.0009ZM84.4431 20.384C85.2431 20.384 85.9671 20.572 86.6151 20.948C87.2711 21.316 87.7871 21.832 88.1631 22.496C88.5391 23.152 88.7271 23.896 88.7271 24.728C88.7271 25.56 88.5351 26.308 88.1511 26.972C87.7751 27.636 87.2591 28.156 86.6031 28.532C85.9551 28.9 85.2351 29.084 84.4431 29.084C83.6511 29.084 82.9271 28.9 82.2711 28.532C81.6231 28.156 81.1071 27.636 80.7231 26.972C80.3471 26.308 80.1591 25.56 80.1591 24.728C80.1591 23.896 80.3471 23.152 80.7231 22.496C81.1071 21.832 81.6231 21.316 82.2711 20.948C82.9271 20.572 83.6511 20.384 84.4431 20.384ZM84.4431 22.292C83.7711 22.292 83.2351 22.512 82.8351 22.952C82.4431 23.384 82.2471 23.976 82.2471 24.728C82.2471 25.472 82.4431 26.064 82.8351 26.504C83.2351 26.944 83.7711 27.164 84.4431 27.164C85.1071 27.164 85.6391 26.944 86.0391 26.504C86.4391 26.064 86.6391 25.472 86.6391 24.728C86.6391 23.984 86.4391 23.392 86.0391 22.952C85.6471 22.512 85.1151 22.292 84.4431 22.292ZM91.9319 20.516V29H89.8799V20.516H91.9319ZM99.4446 26.612C99.4446 27.06 99.3286 27.472 99.0966 27.848C98.8726 28.224 98.5366 28.524 98.0886 28.748C97.6486 28.972 97.1126 29.084 96.4806 29.084C95.5286 29.084 94.7446 28.852 94.1286 28.388C93.5126 27.924 93.1766 27.276 93.1206 26.444H95.3046C95.3366 26.764 95.4486 27.016 95.6406 27.2C95.8406 27.384 96.0926 27.476 96.3966 27.476C96.6606 27.476 96.8686 27.404 97.0206 27.26C97.1726 27.116 97.2486 26.924 97.2486 26.684C97.2486 26.468 97.1766 26.288 97.0326 26.144C96.8966 26 96.7246 25.884 96.5166 25.796C96.3086 25.7 96.0206 25.588 95.6526 25.46C95.1166 25.276 94.6766 25.1 94.3326 24.932C93.9966 24.756 93.7046 24.5 93.4566 24.164C93.2166 23.82 93.0966 23.376 93.0966 22.832C93.0966 22.328 93.2246 21.892 93.4806 21.524C93.7366 21.156 94.0886 20.876 94.5366 20.684C94.9926 20.484 95.5126 20.384 96.0966 20.384C97.0406 20.384 97.7886 20.608 98.3406 21.056C98.9006 21.504 99.2166 22.12 99.2886 22.904H97.0686C97.0286 22.624 96.9246 22.404 96.7566 22.244C96.5966 22.076 96.3766 21.992 96.0966 21.992C95.8566 21.992 95.6606 22.056 95.5086 22.184C95.3646 22.312 95.2926 22.5 95.2926 22.748C95.2926 22.948 95.3566 23.12 95.4846 23.264C95.6206 23.4 95.7886 23.512 95.9886 23.6C96.1886 23.688 96.4766 23.8 96.8526 23.936C97.3966 24.12 97.8406 24.304 98.1846 24.488C98.5286 24.664 98.8246 24.924 99.0726 25.268C99.3206 25.612 99.4446 26.06 99.4446 26.612ZM102.631 22.148V23.924H105.499V25.472H102.631V27.356H105.859V29H100.579V20.516H105.859V22.148H102.631ZM109.832 20.096L109.58 25.964H107.84L107.588 20.096H109.832ZM109.784 26.948V29H107.648V26.948H109.784Z" fill="#A6FFAF"/>
<path d="M24.1716 35.8284L22.7574 37.2426L24.1716 35.8284ZM117.828 35.8284L119.243 37.2426L117.828 35.8284ZM117.828 12.1716L119.243 10.7574L117.828 12.1716ZM31 13H111V9H31V13ZM117 19V29H121V19H117ZM111 35H31V39H111V35ZM25 29V19H21V29H25ZM31 35C29.0578 35 27.8024 34.9958 26.8774 34.8714C26.0099 34.7548 25.738 34.5665 25.5858 34.4142L22.7574 37.2426C23.7767 38.262 25.0334 38.6595 26.3444 38.8357C27.5979 39.0042 29.1709 39 31 39V35ZM21 29C21 30.8291 20.9958 32.4021 21.1643 33.6556C21.3405 34.9666 21.738 36.2233 22.7574 37.2426L25.5858 34.4142C25.4335 34.262 25.2452 33.9901 25.1286 33.1226C25.0042 32.1976 25 30.9422 25 29H21ZM117 29C117 30.9422 116.996 32.1976 116.871 33.1226C116.755 33.9901 116.566 34.262 116.414 34.4142L119.243 37.2426C120.262 36.2233 120.659 34.9666 120.836 33.6556C121.004 32.4021 121 30.8291 121 29H117ZM111 39C112.829 39 114.402 39.0042 115.656 38.8357C116.967 38.6595 118.223 38.262 119.243 37.2426L116.414 34.4142C116.262 34.5665 115.99 34.7548 115.123 34.8714C114.198 34.9958 112.942 35 111 35V39ZM111 13C112.942 13 114.198 13.0042 115.123 13.1286C115.99 13.2452 116.262 13.4335 116.414 13.5858L119.243 10.7574C118.223 9.73803 116.967 9.34054 115.656 9.16428C114.402 8.99575 112.829 9 111 9V13ZM121 19C121 17.1709 121.004 15.5979 120.836 14.3444C120.659 13.0334 120.262 11.7767 119.243 10.7574L116.414 13.5858C116.566 13.738 116.755 14.0099 116.871 14.8774C116.996 15.8024 117 17.0578 117 19H121ZM31 9C29.1709 9 27.5979 8.99575 26.3444 9.16428C25.0334 9.34054 23.7767 9.73803 22.7574 10.7574L25.5858 13.5858C25.738 13.4335 26.0099 13.2452 26.8774 13.1286C27.8024 13.0042 29.0578 13 31 13V9ZM25 19C25 17.0578 25.0042 15.8024 25.1286 14.8774C25.2452 14.0099 25.4335 13.738 25.5858 13.5858L22.7574 10.7574C21.738 11.7767 21.3405 13.0334 21.1643 14.3444C20.9958 15.5979 21 17.1709 21 19H25Z" fill="#A6FFAF"/>
</g>
<defs>
<filter id="filter0_d_895_3554" x="0" y="0" width="142" height="72" filterUnits="userSpaceOnUse" color-interpolation-filters="sRGB">
<feFlood flood-opacity="0" result="BackgroundImageFix"/>
<feColorMatrix in="SourceAlpha" type="matrix" values="0 0 0 0 0 0 0 0 0 0 0 0 0 0 0 0 0 0 127 0" result="hardAlpha"/>
<feOffset dy="12"/>
<feGaussianBlur stdDeviation="11.5"/>
<feColorMatrix type="matrix" values="0 0 0 0 0.717647 0 0 0 0 0.545098 0 0 0 0 0.94902 0 0 0 0.1 0"/>
<feBlend mode="normal" in2="BackgroundImageFix" result="effect1_dropShadow_895_3554"/>
<feBlend mode="normal" in="SourceGraphic" in2="effect1_dropShadow_895_3554" result="shape"/>
</filter>
</defs>
</svg>
