<svg width="117" height="72" viewBox="0 0 117 72" fill="none" xmlns="http://www.w3.org/2000/svg">
<g filter="url(#filter0_d_895_3520)">
<path d="M33.76 26.024V29H31.708V20.516H35.032C36.04 20.516 36.808 20.768 37.336 21.272C37.864 21.768 38.128 22.44 38.128 23.288C38.128 23.816 38.008 24.288 37.768 24.704C37.536 25.112 37.188 25.436 36.724 25.676C36.26 25.908 35.696 26.024 35.032 26.024H33.76ZM34.804 24.38C35.628 24.38 36.04 24.016 36.04 23.288C36.04 22.544 35.628 22.172 34.804 22.172H33.76V24.38H34.804ZM43.1697 20.384C43.9697 20.384 44.6937 20.572 45.3417 20.948C45.9977 21.316 46.5137 21.832 46.8897 22.496C47.2657 23.152 47.4537 23.896 47.4537 24.728C47.4537 25.56 47.2617 26.308 46.8777 26.972C46.5017 27.636 45.9857 28.156 45.3297 28.532C44.6817 28.9 43.9617 29.084 43.1697 29.084C42.3777 29.084 41.6537 28.9 40.9977 28.532C40.3497 28.156 39.8337 27.636 39.4497 26.972C39.0737 26.308 38.8857 25.56 38.8857 24.728C38.8857 23.896 39.0737 23.152 39.4497 22.496C39.8337 21.832 40.3497 21.316 40.9977 20.948C41.6537 20.572 42.3777 20.384 43.1697 20.384ZM43.1697 22.292C42.4977 22.292 41.9617 22.512 41.5617 22.952C41.1697 23.384 40.9737 23.976 40.9737 24.728C40.9737 25.472 41.1697 26.064 41.5617 26.504C41.9617 26.944 42.4977 27.164 43.1697 27.164C43.8337 27.164 44.3657 26.944 44.7657 26.504C45.1657 26.064 45.3657 25.472 45.3657 24.728C45.3657 23.984 45.1657 23.392 44.7657 22.952C44.3737 22.512 43.8417 22.292 43.1697 22.292ZM50.6584 26.024V29H48.6064V20.516H51.9304C52.9384 20.516 53.7064 20.768 54.2344 21.272C54.7624 21.768 55.0264 22.44 55.0264 23.288C55.0264 23.816 54.9064 24.288 54.6664 24.704C54.4344 25.112 54.0864 25.436 53.6224 25.676C53.1584 25.908 52.5944 26.024 51.9304 26.024H50.6584ZM51.7024 24.38C52.5264 24.38 52.9384 24.016 52.9384 23.288C52.9384 22.544 52.5264 22.172 51.7024 22.172H50.6584V24.38H51.7024ZM58.0281 20.516V25.412C58.0281 25.972 58.1521 26.4 58.4001 26.696C58.6561 26.992 59.0241 27.14 59.5041 27.14C59.9841 27.14 60.3481 26.992 60.5961 26.696C60.8521 26.4 60.9801 25.972 60.9801 25.412V20.516H63.0321V25.412C63.0321 26.212 62.8761 26.888 62.5641 27.44C62.2521 27.984 61.8241 28.396 61.2801 28.676C60.7441 28.948 60.1361 29.084 59.4561 29.084C58.7761 29.084 58.1761 28.948 57.6561 28.676C57.1361 28.404 56.7281 27.992 56.4321 27.44C56.1361 26.888 55.9881 26.212 55.9881 25.412V20.516H58.0281ZM66.4553 27.428H69.1913V29H64.4033V20.516H66.4553V27.428ZM75.3898 27.452H72.2098L71.6818 29H69.5218L72.6298 20.576H74.9938L78.1018 29H75.9178L75.3898 27.452ZM74.8618 25.892L73.8058 22.772L72.7378 25.892H74.8618ZM83.2554 29L81.4194 25.796H80.9514V29H78.8994V20.516H82.4034C83.0754 20.516 83.6434 20.632 84.1074 20.864C84.5714 21.096 84.9194 21.416 85.1514 21.824C85.3834 22.224 85.4994 22.684 85.4994 23.204C85.4994 23.82 85.3274 24.344 84.9834 24.776C84.6474 25.208 84.1554 25.504 83.5074 25.664L85.5234 29H83.2554ZM80.9514 24.392H82.2234C82.6314 24.392 82.9314 24.304 83.1234 24.128C83.3154 23.944 83.4114 23.676 83.4114 23.324C83.4114 22.988 83.3114 22.724 83.1114 22.532C82.9194 22.34 82.6234 22.244 82.2234 22.244H80.9514V24.392Z" fill="url(#paint0_linear_895_3520)"/>
<path d="M24.1716 35.8284L22.7574 37.2426L24.1716 35.8284ZM92.8284 35.8284L94.2426 37.2426L92.8284 35.8284ZM92.8284 12.1716L91.4142 13.5858L92.8284 12.1716ZM31 13H86V9H31V13ZM92 19V29H96V19H92ZM86 35H31V39H86V35ZM25 29V19H21V29H25ZM31 35C29.0578 35 27.8024 34.9958 26.8774 34.8714C26.0099 34.7548 25.738 34.5665 25.5858 34.4142L22.7574 37.2426C23.7767 38.262 25.0334 38.6595 26.3444 38.8357C27.5979 39.0042 29.1709 39 31 39V35ZM21 29C21 30.8291 20.9958 32.4021 21.1643 33.6556C21.3405 34.9666 21.738 36.2233 22.7574 37.2426L25.5858 34.4142C25.4335 34.262 25.2452 33.9901 25.1286 33.1226C25.0042 32.1976 25 30.9422 25 29H21ZM92 29C92 30.9422 91.9958 32.1976 91.8714 33.1226C91.7548 33.9901 91.5665 34.262 91.4142 34.4142L94.2426 37.2426C95.262 36.2233 95.6595 34.9666 95.8357 33.6556C96.0042 32.4021 96 30.8291 96 29H92ZM86 39C87.8291 39 89.4021 39.0042 90.6556 38.8357C91.9666 38.6595 93.2233 38.262 94.2426 37.2426L91.4142 34.4142C91.262 34.5665 90.9901 34.7548 90.1226 34.8714C89.1976 34.9958 87.9422 35 86 35V39ZM86 13C87.9422 13 89.1976 13.0042 90.1226 13.1286C90.9901 13.2452 91.262 13.4335 91.4142 13.5858L94.2426 10.7574C93.2233 9.73803 91.9666 9.34054 90.6556 9.16428C89.4021 8.99575 87.8291 9 86 9V13ZM96 19C96 17.1709 96.0042 15.5979 95.8357 14.3444C95.6595 13.0334 95.262 11.7767 94.2426 10.7574L91.4142 13.5858C91.5665 13.738 91.7548 14.0099 91.8714 14.8774C91.9958 15.8024 92 17.0578 92 19H96ZM31 9C29.1709 9 27.5979 8.99575 26.3444 9.16428C25.0334 9.34054 23.7767 9.73803 22.7574 10.7574L25.5858 13.5858C25.738 13.4335 26.0099 13.2452 26.8774 13.1286C27.8024 13.0042 29.0578 13 31 13V9ZM25 19C25 17.0578 25.0042 15.8024 25.1286 14.8774C25.2452 14.0099 25.4335 13.738 25.5858 13.5858L22.7574 10.7574C21.738 11.7767 21.3405 13.0334 21.1643 14.3444C20.9958 15.5979 21 17.1709 21 19H25Z" fill="url(#paint1_linear_895_3520)"/>
</g>
<defs>
<filter id="filter0_d_895_3520" x="0" y="0" width="117" height="72" filterUnits="userSpaceOnUse" color-interpolation-filters="sRGB">
<feFlood flood-opacity="0" result="BackgroundImageFix"/>
<feColorMatrix in="SourceAlpha" type="matrix" values="0 0 0 0 0 0 0 0 0 0 0 0 0 0 0 0 0 0 127 0" result="hardAlpha"/>
<feOffset dy="12"/>
<feGaussianBlur stdDeviation="11.5"/>
<feColorMatrix type="matrix" values="0 0 0 0 0.717647 0 0 0 0 0.545098 0 0 0 0 0.94902 0 0 0 0.1 0"/>
<feBlend mode="normal" in2="BackgroundImageFix" result="effect1_dropShadow_895_3520"/>
<feBlend mode="normal" in="SourceGraphic" in2="effect1_dropShadow_895_3520" result="shape"/>
</filter>
<linearGradient id="paint0_linear_895_3520" x1="33.1569" y1="31" x2="54.5782" y2="-4.39177" gradientUnits="userSpaceOnUse">
<stop offset="0.192708" stop-color="#8BECFF"/>
<stop offset="0.619792" stop-color="#F49CF8"/>
<stop offset="1" stop-color="#F0FE98"/>
</linearGradient>
<linearGradient id="paint1_linear_895_3520" x1="25.7843" y1="37" x2="78.1649" y2="-14.562" gradientUnits="userSpaceOnUse">
<stop offset="0.192708" stop-color="#8BECFF"/>
<stop offset="0.619792" stop-color="#F49CF8"/>
<stop offset="1" stop-color="#F0FE98"/>
</linearGradient>
</defs>
</svg>
