<svg width="208" height="32" viewBox="0 0 208 32" fill="none" xmlns="http://www.w3.org/2000/svg">
<path fill-rule="evenodd" clip-rule="evenodd" d="M28.2033 16C28.2033 22.6734 22.7881 28.2074 15.9567 28.2074C9.1254 28.2074 3.71014 22.6734 3.71014 16C3.71014 9.32661 9.1254 3.79259 15.9567 3.79259C22.7881 3.79259 28.2033 9.32661 28.2033 16ZM31.9135 16C31.9135 24.8366 24.7694 32 15.9567 32C7.14408 32 0 24.8366 0 16C0 7.16344 7.14408 0 15.9567 0C24.7694 0 31.9135 7.16344 31.9135 16ZM18.4382 14.7883C19.9095 13.9376 20.9024 12.3253 20.9024 10.4762C20.9024 7.74107 18.7299 5.52381 16.05 5.52381C13.3702 5.52381 11.1977 7.74107 11.1977 10.4762C11.1977 12.4298 12.306 14.1192 13.916 14.9252L11.5612 24.2716C11.3767 25.0039 11.9303 25.7143 12.6855 25.7143H19.6147C20.3656 25.7143 20.9185 25.0113 20.7414 24.2815L18.4382 14.7883ZM16.7434 12.381C16.5513 12.381 16.3956 12.2218 16.3956 12.0254V11.5389H15.4411V12.0254C15.4411 12.2218 15.2853 12.381 15.0932 12.381C14.9011 12.381 14.7454 12.2218 14.7454 12.0254V11.5389H14.345C14.1529 11.5389 13.9972 11.3797 13.9972 11.1833C13.9972 10.9869 14.1529 10.8277 14.345 10.8277H14.7454V10.0652H14.345C14.1529 10.0652 13.9972 9.90597 13.9972 9.70961C13.9972 9.51324 14.1529 9.35405 14.345 9.35405H14.7454V8.73652C14.7454 8.54015 14.9011 8.38096 15.0932 8.38096C15.2853 8.38096 15.4411 8.54015 15.4411 8.73652V9.35405H16.3956V8.73652C16.3956 8.54015 16.5513 8.38096 16.7434 8.38096C16.9355 8.38096 17.0913 8.54015 17.0913 8.73652V9.35405H17.5685C17.7606 9.35405 17.9164 9.51324 17.9164 9.70961C17.9164 9.90597 17.7606 10.0652 17.5685 10.0652H17.0913V10.8277H17.5685C17.7606 10.8277 17.9164 10.9869 17.9164 11.1833C17.9164 11.3797 17.7606 11.5389 17.5685 11.5389H17.0913V12.0254C17.0913 12.2218 16.9355 12.381 16.7434 12.381ZM15.4411 10.0652V10.8277H16.3956V10.0652L15.4411 10.0652Z" fill="url(#paint0_linear_602_731)"/>
<path d="M48 16C48 20.4324 51.5508 24 56.4492 24C59.8075 24 61.861 22.3568 63.0374 20.7135C63.7433 19.7405 64.2567 18.6378 64.5775 17.4054H59.6578C59.5294 17.8378 59.3369 18.227 59.0588 18.5514C58.5668 19.1351 57.7968 19.6757 56.4492 19.6757C54.3957 19.6757 53.0267 18.2703 53.0267 16C53.0267 13.7297 54.3957 12.3243 56.4492 12.3243C57.6684 12.3243 58.4385 12.8 58.9305 13.2541C59.2086 13.5135 59.4011 13.8162 59.5508 14.1622H64.4706C64.1711 13.0162 63.6791 11.9784 62.9947 11.0919C61.861 9.55676 59.7861 8 56.4492 8C51.5508 8 48 11.5676 48 16Z" fill="white"/>
<path d="M75.058 23.5676H79.8708V19.3514H82.1168L84.4698 23.5676H89.3895L86.5018 18.3784C86.9938 18.1405 87.443 17.7946 87.828 17.3838C88.4911 16.6919 89.1756 15.5892 89.1756 13.9459C89.1756 10.8108 86.8227 8.43243 83.0794 8.43243H75.058V23.5676ZM79.8708 15.3514V12.5405H82.6516C83.6141 12.5405 84.2558 13.1892 84.2558 13.9459C84.2558 14.7027 83.6141 15.3514 82.6516 15.3514H79.8708Z" fill="white"/>
<path d="M97.9507 8.43243L103.405 18.1622V23.5676H108.218V18.1622L113.673 8.43243H108.753L105.972 13.8378H105.651L102.87 8.43243H97.9507Z" fill="white"/>
<path d="M123.295 23.5676H128.108V19.8919H131.102C134.953 19.8919 137.413 17.3838 137.413 14.1622C137.413 10.9405 134.953 8.43243 131.102 8.43243H123.295V23.5676ZM128.108 15.7838V12.5405H130.675C131.872 12.5405 132.493 13.1892 132.493 14.1622C132.493 15.1351 131.872 15.7838 130.675 15.7838H128.108Z" fill="white"/>
<path d="M146.72 12.7568H151.319V23.5676H156.132V12.7568H160.731V8.43243H146.72V12.7568Z" fill="white"/>
<path d="M170.78 23.5676H182.759V19.4595H175.593V17.7297H181.261V14.2703H175.593V12.5405H182.759V8.43243H170.78V23.5676Z" fill="white"/>
<path d="M192.278 23.5676H197.412L199.658 18.1622H200.62L202.866 23.5676H208L204.257 16L207.572 8.43243H202.545L200.62 13.8378H199.658L197.733 8.43243H192.706L196.021 16L192.278 23.5676Z" fill="white"/>
<defs>
<linearGradient id="paint0_linear_602_731" x1="1.25151" y1="32" x2="42.3044" y2="17.2415" gradientUnits="userSpaceOnUse">
<stop offset="0.192708" stop-color="#8BECFF"/>
<stop offset="0.619792" stop-color="#F49CF8"/>
<stop offset="1" stop-color="#F0FE98"/>
</linearGradient>
</defs>
</svg>
