<svg width="12" height="12" viewBox="0 0 12 12" fill="none" xmlns="http://www.w3.org/2000/svg">
<path d="M6.76873 6.34121C6.76873 8.18645 5.25348 9.68231 3.38442 9.68231C1.51537 9.68231 0 8.18645 0 6.34121C0 4.49597 1.51525 3 3.38442 3C5.25359 3 6.76873 4.49597 6.76873 6.34121Z" fill="white"/>
<path d="M10.4816 6.34035C10.4816 8.07736 9.72397 9.4854 8.78938 9.4854C7.8548 9.4854 7.09717 8.07725 7.09717 6.34035C7.09717 4.60346 7.8548 3.19531 8.78938 3.19531C9.72397 3.1952 10.4816 4.60334 10.4816 6.34035Z" fill="white"/>
<path d="M12.0001 6.3413C12.0001 7.89759 11.7337 9.15917 11.405 9.15917C11.0762 9.15917 10.8098 7.89759 10.8098 6.3413C10.8098 4.78502 11.0762 3.52344 11.405 3.52344C11.7337 3.52344 12.0001 4.78502 12.0001 6.3413Z" fill="white"/>
</svg>
