<svg width="93" height="24" viewBox="0 0 93 24" fill="none" xmlns="http://www.w3.org/2000/svg">
<mask id="mask0_895_3733" style="mask-type:alpha" maskUnits="userSpaceOnUse" x="0" y="0" width="93" height="24">
<rect width="93" height="24" fill="#C4C4C4"/>
</mask>
<g mask="url(#mask0_895_3733)">
<path d="M29.2905 11.0036V9.60104H32.5666C33.5651 9.60104 34.1597 8.96224 34.1597 8.02722C34.1597 7.06936 33.5651 6.46481 32.5666 6.46481H28.2472V13.3072H26.8335V5.0166H32.5666C34.4515 5.0166 35.5508 6.16825 35.5508 7.98154C35.5508 9.77199 34.4515 11.0036 32.5666 11.0036H29.2905Z" fill="#8A94A6"/>
<path d="M43.8862 13.3109L42.6632 11.224H38.8039L39.4769 10.0496H41.9789L40.1614 6.94758L36.4589 13.3109H34.832L39.5219 5.37376C39.6902 5.08879 39.9033 4.90625 40.2174 4.90625C40.5316 4.90625 40.7337 5.08879 40.9019 5.37376L45.6027 13.3109H43.8862Z" fill="#8A94A6"/>
<path d="M46.4624 13.3072V5.0166H47.8872V11.859H53.3735V13.3072H46.4624Z" fill="#8A94A6"/>
<path d="M62.9099 13.3109L61.6868 11.224H57.8275L58.5006 10.0496H61.0025L59.1851 6.94758L55.4827 13.3109H53.8557L58.5455 5.37376C58.7139 5.08879 58.9272 4.90625 59.2411 4.90625C59.5553 4.90625 59.7574 5.08879 59.9257 5.37376L64.6264 13.3109H62.9099Z" fill="#8A94A6"/>
<path d="M70.2309 11.859C71.7006 11.859 72.7778 10.7072 72.7778 9.14495C72.7778 7.58254 71.7006 6.46481 70.2309 6.46481H66.9213V11.859H70.2309ZM65.5076 13.3072V5.0166H70.2309C72.5308 5.0166 74.2024 6.67019 74.2024 9.07643C74.2024 11.4827 72.5308 13.3072 70.2309 13.3072H65.5076Z" fill="#8A94A6"/>
<path d="M76.8551 5.0166H75.4302V13.3072H76.8551V5.0166Z" fill="#8A94A6"/>
<path d="M79.6844 7.23273V13.2998H78.3269V5.77293C78.3269 5.23707 78.6073 4.90625 79.0561 4.90625C79.2693 4.90625 79.4488 4.98601 79.662 5.20281L85.4176 11.0074V4.94051H86.7753V12.5356C86.7753 13.083 86.4833 13.4024 86.0683 13.4024C85.8327 13.4024 85.6196 13.2998 85.4176 13.0944L79.6844 7.23273Z" fill="#8A94A6"/>
<path d="M27.6762 18.2573H28.1998C28.3257 18.2573 28.4262 18.226 28.5009 18.1632C28.5755 18.1005 28.6133 18.0119 28.6133 17.8971V17.8612C28.6133 17.7465 28.5763 17.6578 28.5028 17.5951C28.4294 17.5325 28.3283 17.501 28.1998 17.501H27.6762V18.2573ZM27.6762 17.0648H28.1959C28.3166 17.0648 28.4143 17.0344 28.489 16.9728C28.5639 16.9115 28.6012 16.8262 28.6012 16.7169V16.6769C28.6012 16.5674 28.5639 16.4822 28.489 16.4206C28.4143 16.3594 28.3166 16.3288 28.1959 16.3288H27.6762V17.0648ZM26.8337 18.6935V18.2692H27.2036V16.3168H26.8337V15.8926H28.2429C28.4083 15.8926 28.5533 15.9213 28.6781 15.9786C28.8025 16.036 28.8996 16.1173 28.9692 16.2227C29.0388 16.3281 29.0735 16.454 29.0735 16.6008V16.6369C29.0735 16.7648 29.0502 16.8703 29.0029 16.9529C28.9557 17.0356 28.8992 17.0996 28.8335 17.1449C28.7678 17.1903 28.705 17.2223 28.6446 17.2411V17.3091C28.705 17.325 28.7697 17.355 28.8393 17.3991C28.9089 17.4429 28.9678 17.5071 29.0165 17.591C29.065 17.6751 29.0894 17.7837 29.0894 17.9171V17.9571C29.0894 18.1094 29.0533 18.2405 28.9811 18.3512C28.9089 18.462 28.8107 18.5468 28.6859 18.6054C28.5612 18.6641 28.4175 18.6935 28.2549 18.6935H26.8337Z" fill="#8A94A6"/>
<path d="M30.5088 18.6935V15.8926H30.9847V18.2573H32.2761V18.6935H30.5088Z" fill="#8A94A6"/>
<path d="M34.5924 18.3078C34.7972 18.3078 34.9565 18.2472 35.0707 18.1258C35.1848 18.0043 35.2418 17.8398 35.2418 17.6316V16.9354C35.2418 16.7274 35.1848 16.5627 35.0707 16.4412C34.9565 16.3199 34.7972 16.2592 34.5924 16.2592C34.3902 16.2592 34.2324 16.3199 34.1182 16.4412C34.0039 16.5627 33.9469 16.7274 33.9469 16.9354V17.6316C33.9469 17.8398 34.0039 18.0043 34.1182 18.1258C34.2324 18.2472 34.3902 18.3078 34.5924 18.3078ZM34.5924 18.7398C34.2513 18.7398 33.9789 18.6431 33.7757 18.4497C33.5723 18.2566 33.4705 17.9784 33.4705 17.6155V16.9515C33.4705 16.5888 33.5723 16.3106 33.7757 16.1171C33.9789 15.9239 34.2513 15.8271 34.5924 15.8271C34.9363 15.8271 35.2089 15.9239 35.4112 16.1171C35.6131 16.3106 35.7142 16.5888 35.7142 16.9515V17.6155C35.7142 17.9784 35.6131 18.2566 35.4112 18.4497C35.2089 18.6431 34.9363 18.7398 34.5924 18.7398Z" fill="#8A94A6"/>
<path d="M38.226 18.74C37.8901 18.74 37.6224 18.6433 37.423 18.4498C37.2237 18.2564 37.1238 17.9785 37.1238 17.6155V16.9515C37.1238 16.5886 37.2237 16.3107 37.423 16.1173C37.6224 15.9237 37.8901 15.8271 38.226 15.8271C38.562 15.8271 38.8211 15.9206 39.0034 16.1071C39.1859 16.2938 39.2771 16.55 39.2771 16.8753V16.8995H38.8124V16.8634C38.8124 16.6874 38.7646 16.5426 38.6689 16.4293C38.5729 16.3159 38.4255 16.2592 38.226 16.2592C38.0317 16.2592 37.8789 16.3199 37.7674 16.4412C37.6559 16.5627 37.6001 16.7302 37.6001 16.9435V17.6237C37.6001 17.8344 37.6559 18.0012 37.7674 18.1239C37.8789 18.2465 38.0317 18.308 38.226 18.308C38.4255 18.308 38.5729 18.2512 38.6689 18.1377C38.7646 18.0244 38.8124 17.8797 38.8124 17.7038V17.6356H39.2771V17.6917C39.2771 18.0171 39.1859 18.2732 39.0034 18.4599C38.8211 18.6467 38.562 18.74 38.226 18.74Z" fill="#8A94A6"/>
<path d="M40.6907 18.6935V15.8926H41.167V17.033H41.2339L42.1946 15.8926H42.8045L41.6041 17.2731L42.844 18.6935H42.2179L41.2339 17.5292H41.167V18.6935H40.6907Z" fill="#8A94A6"/>
<path d="M45.0355 18.74C44.6995 18.74 44.4318 18.6433 44.2326 18.4498C44.0331 18.2564 43.9333 17.9785 43.9333 17.6155V16.9515C43.9333 16.5886 44.0331 16.3107 44.2326 16.1173C44.4318 15.9237 44.6995 15.8271 45.0355 15.8271C45.3716 15.8271 45.6306 15.9206 45.8128 16.1071C45.9954 16.2938 46.0865 16.55 46.0865 16.8753V16.8995H45.622V16.8634C45.622 16.6874 45.5741 16.5426 45.4785 16.4293C45.3825 16.3159 45.235 16.2592 45.0355 16.2592C44.8413 16.2592 44.6885 16.3199 44.5768 16.4412C44.4655 16.5627 44.4096 16.7302 44.4096 16.9435V17.6237C44.4096 17.8344 44.4655 18.0012 44.5768 18.1239C44.6885 18.2465 44.8413 18.308 45.0355 18.308C45.235 18.308 45.3825 18.2512 45.4785 18.1377C45.5741 18.0244 45.622 17.8797 45.622 17.7038V17.6356H46.0865V17.6917C46.0865 18.0171 45.9954 18.2732 45.8128 18.4599C45.6306 18.6467 45.3716 18.74 45.0355 18.74Z" fill="#8A94A6"/>
<path d="M47.522 18.6935V15.8926H47.9981V17.0691H49.0845V15.8926H49.5607V18.6935H49.0845V17.5091H47.9981V18.6935H47.522Z" fill="#8A94A6"/>
<path d="M51.6579 17.6131H52.4648L52.0949 16.1928H52.0278L51.6579 17.6131ZM50.8943 18.6935L51.6499 15.8926H52.4728L53.2286 18.6935H52.7404L52.5752 18.0531H51.5478L51.3823 18.6935H50.8943Z" fill="#8A94A6"/>
<path d="M55.0454 15.8926H54.5693V18.6935H55.0454V15.8926Z" fill="#8A94A6"/>
<path d="M56.5798 18.6935V15.8926H57.4851L58.1345 18.3694H58.1978V15.8926H58.6661V18.6935H57.7644L57.1152 16.2168H57.0481V18.6935H56.5798Z" fill="#8A94A6"/>
<path d="M63.1237 18.74C62.9135 18.74 62.7281 18.7019 62.5666 18.626C62.4052 18.5499 62.2785 18.4398 62.1866 18.2959C62.0949 18.1517 62.0491 17.9758 62.0491 17.7678V17.6636H62.5175V17.7678C62.5175 17.9517 62.5727 18.0891 62.6828 18.1798C62.793 18.2704 62.94 18.3159 63.1237 18.3159C63.3099 18.3159 63.4505 18.2773 63.545 18.1998C63.6393 18.1225 63.6865 18.0225 63.6865 17.8998C63.6865 17.8171 63.6642 17.7496 63.6196 17.6975C63.575 17.6458 63.5099 17.6036 63.4248 17.5716C63.3394 17.5396 63.2366 17.5089 63.1157 17.4795L62.9976 17.4556C62.8166 17.4129 62.66 17.3589 62.5274 17.2935C62.3948 17.2281 62.293 17.1433 62.2222 17.0394C62.151 16.9355 62.116 16.7994 62.116 16.6314C62.116 16.4634 62.1553 16.3192 62.2338 16.1993C62.3129 16.0791 62.4242 15.9872 62.5688 15.923C62.7129 15.8592 62.8821 15.8271 63.0765 15.8271C63.2708 15.8271 63.4437 15.8605 63.5962 15.9272C63.7481 15.9938 63.8683 16.094 63.9563 16.2272C64.0443 16.3606 64.088 16.5274 64.088 16.7274V16.8594H63.6196V16.7274C63.6196 16.6127 63.5973 16.5206 63.5525 16.4512C63.5081 16.382 63.4451 16.3313 63.3639 16.2992C63.2823 16.2671 63.1867 16.2512 63.0765 16.2512C62.9135 16.2512 62.7902 16.2832 62.7063 16.3473C62.6222 16.4113 62.5805 16.5019 62.5805 16.6194C62.5805 16.694 62.5992 16.7573 62.6375 16.8094C62.6755 16.8615 62.7318 16.9042 62.8069 16.9373C62.8815 16.971 62.9754 16.9994 63.0881 17.0234L63.2064 17.0516C63.3952 17.0942 63.5607 17.1482 63.7021 17.2134C63.8437 17.2788 63.9547 17.365 64.0349 17.4717C64.1149 17.5783 64.1549 17.7171 64.1549 17.8877C64.1549 18.0557 64.1122 18.2038 64.0272 18.3318C63.9416 18.4599 63.8223 18.5599 63.6688 18.6319C63.5152 18.704 63.3336 18.74 63.1237 18.74Z" fill="#8A94A6"/>
<path d="M65.551 18.6935V15.8926H67.3067V16.3288H66.0275V17.065H67.1966V17.501H66.0275V18.2573H67.3263V18.6935H65.551Z" fill="#8A94A6"/>
<path d="M69.7661 18.74C69.4304 18.74 69.1625 18.6433 68.9633 18.4498C68.7638 18.2564 68.6641 17.9785 68.6641 17.6155V16.9515C68.6641 16.5886 68.7638 16.3107 68.9633 16.1173C69.1625 15.9237 69.4304 15.8271 69.7661 15.8271C70.1023 15.8271 70.3614 15.9206 70.5435 16.1071C70.7261 16.2938 70.8172 16.55 70.8172 16.8753V16.8995H70.3527V16.8634C70.3527 16.6874 70.3048 16.5426 70.2092 16.4293C70.1132 16.3159 69.9658 16.2592 69.7661 16.2592C69.5719 16.2592 69.4192 16.3199 69.3077 16.4412C69.1962 16.5627 69.1403 16.7302 69.1403 16.9435V17.6237C69.1403 17.8344 69.1962 18.0012 69.3077 18.1239C69.4192 18.2465 69.5719 18.308 69.7661 18.308C69.9658 18.308 70.1132 18.2512 70.2092 18.1377C70.3048 18.0244 70.3527 17.8797 70.3527 17.7038V17.6356H70.8172V17.6917C70.8172 18.0171 70.7261 18.2732 70.5435 18.4599C70.3614 18.6467 70.1023 18.74 69.7661 18.74Z" fill="#8A94A6"/>
<path d="M73.2935 18.7494C73.0732 18.7494 72.8838 18.7087 72.7249 18.6274C72.566 18.5459 72.4441 18.4279 72.3588 18.2732C72.2735 18.1187 72.231 17.9346 72.231 17.7213V15.8926H72.7032V17.7332C72.7032 17.9197 72.7544 18.0639 72.8567 18.1652C72.9592 18.2666 73.1047 18.3173 73.2935 18.3173C73.4852 18.3173 73.6316 18.2666 73.7325 18.1652C73.8334 18.0639 73.8842 17.9197 73.8842 17.7332V15.8926H74.3565V17.7213C74.3565 17.9346 74.3145 18.1187 74.2306 18.2732C74.1465 18.4279 74.0244 18.5459 73.8644 18.6274C73.7044 18.7087 73.5141 18.7494 73.2935 18.7494Z" fill="#8A94A6"/>
<path d="M76.3387 17.1771H76.9924C77.1289 17.1771 77.2358 17.1403 77.3131 17.0671C77.3905 16.9937 77.429 16.8956 77.429 16.7727V16.7369C77.429 16.6115 77.3911 16.5122 77.315 16.4388C77.239 16.3655 77.1315 16.3288 76.9924 16.3288H76.3387V17.1771ZM75.8628 18.6935V15.8926H77.0395C77.2127 15.8926 77.3637 15.9232 77.4922 15.9846C77.6207 16.0461 77.7213 16.132 77.7933 16.2428C77.8656 16.3533 77.9016 16.486 77.9016 16.6407V16.6849C77.9016 16.8581 77.8609 16.9968 77.7797 17.101C77.6983 17.205 77.5999 17.2811 77.4845 17.329V17.393C77.5865 17.3984 77.6673 17.4344 77.7264 17.501C77.7855 17.5676 77.8149 17.6571 77.8149 17.7692V18.6935H77.3427V17.8372C77.3427 17.7704 77.325 17.7166 77.2894 17.6751C77.254 17.6337 77.1968 17.6131 77.1184 17.6131H76.3387V18.6935H75.8628Z" fill="#8A94A6"/>
<path d="M79.8195 15.8926H79.3433V18.6935H79.8195V15.8926Z" fill="#8A94A6"/>
<path d="M81.9819 18.6935V16.3288H81.1592V15.8926H83.2768V16.3288H82.4544V18.6935H81.9819Z" fill="#8A94A6"/>
<path d="M85.3507 18.6935V17.7053L84.4019 15.8926H84.9331L85.5551 17.129H85.622L86.2442 15.8926H86.7714L85.8231 17.7053V18.6935H85.3507Z" fill="#8A94A6"/>
<path d="M16.6882 5.78596V10.8191C16.6882 12.1955 16.2363 13.6061 15.417 14.7899C14.6824 15.8522 13.6859 16.6991 12.4456 17.3162C12.9914 17.5489 13.7291 17.8341 14.0206 17.9459C15.0082 17.3026 15.8338 16.5048 16.4897 15.5574C17.4635 14.1504 18.0001 12.4675 18.0001 10.8191V5.99789C17.6262 5.93098 17.1829 5.85764 16.6882 5.78596ZM11.8099 17.6043C10.2716 16.9729 9.0601 16.0278 8.20385 14.7899C7.38379 13.6061 6.93247 12.1955 6.93247 10.8191V7.74915C6.50853 7.81355 5.62061 7.98247 5.62061 7.98247V10.8191C5.62061 12.4675 6.15716 14.1504 7.13012 15.5574C8.22695 17.142 9.79983 18.3089 11.8099 19.0296H11.8108C12.4062 18.8162 12.9632 18.5636 13.4805 18.2717C13.4492 18.2605 12.4505 17.8804 11.8099 17.6043ZM11.8099 5.4043C9.38878 5.4043 7.01954 5.74877 5.62061 5.99789V7.36686C5.62061 7.36686 6.50853 7.19794 6.93247 7.13333C8.30851 6.92598 10.0463 6.73774 11.8099 6.73774C13.3244 6.73774 14.8194 6.87632 16.0826 7.04752V5.70286C14.8302 5.53997 13.3303 5.4043 11.8099 5.4043Z" fill="#8A94A6"/>
</g>
</svg>
