<svg width="12" height="12" viewBox="0 0 12 12" fill="none" xmlns="http://www.w3.org/2000/svg">
<path d="M9.79365 2.50391C10.2154 2.50391 10.3264 2.82291 10.2017 3.57191C10.0589 4.42841 9.64765 7.26416 9.31965 9.02941C9.19415 9.70491 8.9679 9.99616 8.63865 9.99616C8.45765 9.99616 8.24565 9.90816 8.00215 9.74741C7.67215 9.52941 6.00615 8.42766 5.6444 8.16891C5.3144 7.93316 5.05376 7.30842 5.62476 6.74992C5.82801 6.55092 6.96515 5.62016 8.00265 4.63041C8.1134 4.52466 8.02065 4.36341 7.89765 4.36341C7.86965 4.36341 7.8399 4.37191 7.8109 4.39116C6.4124 5.31866 4.47315 6.60591 4.2264 6.77366C3.97965 6.94116 3.73915 7.04866 3.41865 7.04866C3.2549 7.04866 3.07015 7.02066 2.8529 6.95816C2.36715 6.81866 1.8929 6.65241 1.70815 6.58891C1.24745 6.43056 1.16565 6.02866 1.8564 5.72466C4.6259 4.50641 8.20965 3.02091 8.7044 2.81541C9.1864 2.61516 9.5444 2.50391 9.79365 2.50391ZM9.79365 1.75391C9.45165 1.75391 9.0399 1.86416 8.41715 2.12241L8.3424 2.15341C5.68365 3.25741 3.2729 4.28191 1.5544 5.03791C1.2859 5.15616 0.46915 5.51541 0.5009 6.26691C0.5144 6.59116 0.6929 7.03316 1.4649 7.29791L1.5219 7.31741C1.7374 7.39166 2.18615 7.54641 2.64615 7.67866C2.92615 7.75916 3.17915 7.79816 3.4189 7.79816C3.77527 7.79816 4.06284 7.71101 4.29638 7.59912C4.34699 7.57487 4.40787 7.61195 4.41215 7.66791C4.45765 8.24591 4.90465 8.56291 5.17165 8.75241L5.2089 8.77891C5.60315 9.06091 7.3874 10.2397 7.5894 10.3729C7.96965 10.6239 8.3129 10.7457 8.63915 10.7457C9.15215 10.7457 9.8149 10.4717 10.0574 9.16616C10.2877 7.92791 10.5536 6.19816 10.7479 4.93516C10.8307 4.39616 10.8987 3.95416 10.9419 3.69491C11.0292 3.17141 11.0691 2.57841 10.7049 2.14866C10.5519 1.96866 10.2699 1.75391 9.79365 1.75391Z" fill="white"/>
</svg>
