<svg width="12" height="12" viewBox="0 0 12 12" fill="none" xmlns="http://www.w3.org/2000/svg">
<path fill-rule="evenodd" clip-rule="evenodd" d="M1.59025 6.9999C0.763393 7.00225 0.229635 7.9442 0.739033 8.65785C1.46854 9.6798 2.79142 10.5 4.99993 10.5C8.42248 10.5 11.1698 7.71085 10.7852 4.41555L11.3486 3.28865C11.7394 2.50714 11.0604 1.61811 10.2036 1.78947L9.45918 1.93834C9.26183 1.83421 9.05758 1.75563 8.88303 1.6987C8.54283 1.58776 8.13108 1.5 7.74993 1.5C7.06528 1.5 6.47438 1.67566 6.00478 2.02797C5.54053 2.37632 5.27903 2.83412 5.13553 3.25452C5.06938 3.4483 5.02533 3.64267 4.99706 3.82922C4.73143 3.74562 4.46057 3.63313 4.1954 3.49577C3.5938 3.18416 3.10733 2.78911 2.8329 2.44275C2.37249 1.86165 1.39677 1.90473 1.05438 2.6601C0.571808 3.72474 0.704183 4.98673 1.13795 6.00645C1.28334 6.3482 1.47247 6.68605 1.70352 6.99915C1.66397 6.9996 1.62613 6.9998 1.59025 6.9999ZM4.99988 9.5C3.06821 9.5 2.06937 8.80035 1.5529 8.07685C1.52969 8.04435 1.55309 8 1.59303 7.9999C2.11845 7.9984 3.19695 7.97355 3.90825 7.55725C3.94503 7.5357 3.93694 7.48145 3.89654 7.4679C2.23845 6.9104 1.29594 4.54929 1.96513 3.07295C1.98047 3.0391 2.02597 3.03464 2.04906 3.06377C2.81349 4.02859 4.48489 4.9736 5.93908 4.99945C5.97063 5 5.99448 4.97135 5.98968 4.94017C5.93108 4.56027 5.70733 2.5 7.74988 2.5C8.23763 2.5 8.96333 2.73792 9.23063 2.98165C9.24298 2.99292 9.25973 2.99803 9.27613 2.99475L10.3996 2.77005C10.4404 2.76189 10.4728 2.80422 10.4542 2.84144L9.75733 4.2351C9.75248 4.24477 9.75098 4.25588 9.75283 4.26653C10.2409 7.01 7.99388 9.5 4.99988 9.5Z" fill="white"/>
</svg>
