<svg width="18" height="14" viewBox="0 0 18 14" fill="none" xmlns="http://www.w3.org/2000/svg">
<mask id="path-1-outside-1_895_3024" maskUnits="userSpaceOnUse" x="-0.189941" y="-0.490234" width="19" height="14" fill="black">
<rect fill="white" x="-0.189941" y="-0.490234" width="19" height="14"/>
<path d="M6.00001 10.6997L2.50001 7.19971C2.11341 6.81312 1.48661 6.81312 1.10001 7.19971L-nan -nanL-nan -nanL1.10001 7.19971C0.713409 7.58631 0.713409 8.21312 1.10001 8.59971L4.93935 12.4391C5.52513 13.0248 6.47488 13.0248 7.06067 12.4391L17.3 2.19971C17.6866 1.81311 17.6866 1.18631 17.3 0.799715L-nan -nanL-nan -nanL17.3 0.799715C16.9134 0.413116 16.2866 0.413116 15.9 0.799715L6.00001 10.6997Z"/>
</mask>
<path d="M6.00001 10.6997L2.50001 7.19971C2.11341 6.81312 1.48661 6.81312 1.10001 7.19971L-nan -nanL-nan -nanL1.10001 7.19971C0.713409 7.58631 0.713409 8.21312 1.10001 8.59971L4.93935 12.4391C5.52513 13.0248 6.47488 13.0248 7.06067 12.4391L17.3 2.19971C17.6866 1.81311 17.6866 1.18631 17.3 0.799715L-nan -nanL-nan -nanL17.3 0.799715C16.9134 0.413116 16.2866 0.413116 15.9 0.799715L6.00001 10.6997Z" fill="#A6FFAF"/>
<path d="M6.00001 10.6997L5.71716 10.9826C5.87337 11.1388 6.12664 11.1388 6.28285 10.9826L6.00001 10.6997ZM15.9 0.799715L16.1829 1.08256V1.08256L15.9 0.799715ZM17.3 2.19971L17.0172 1.91687L17.3 2.19971ZM4.93935 12.4391L4.6565 12.7219L4.93935 12.4391ZM7.06067 12.4391L7.34351 12.7219L7.06067 12.4391ZM1.10001 8.59971L1.38285 8.31687L1.10001 8.59971ZM2.50001 7.19971L2.21716 7.48256L2.50001 7.19971ZM6.28285 10.4169L2.78285 6.91687L2.21716 7.48256L5.71716 10.9826L6.28285 10.4169ZM0.817165 8.88256L4.6565 12.7219L5.22219 12.1562L1.38285 8.31687L0.817165 8.88256ZM7.34351 12.7219L17.5829 2.48256L17.0172 1.91687L6.77783 12.1562L7.34351 12.7219ZM15.6172 0.516872L5.71716 10.4169L6.28285 10.9826L16.1829 1.08256L15.6172 0.516872ZM17.5829 0.516873C17.04 -0.0259366 16.16 -0.0259368 15.6172 0.516872L16.1829 1.08256C16.4132 0.852168 16.7868 0.852168 17.0172 1.08256L17.5829 0.516873ZM17.5829 2.48256C18.1257 1.93975 18.1257 1.05968 17.5829 0.516873L17.0172 1.08256C17.2476 1.31295 17.2476 1.68648 17.0172 1.91687L17.5829 2.48256ZM4.6565 12.7219C5.3985 13.4639 6.60151 13.4639 7.34351 12.7219L6.77783 12.1562C6.34825 12.5858 5.65177 12.5858 5.22219 12.1562L4.6565 12.7219ZM0.817166 6.91687C0.274356 7.45968 0.274356 8.33975 0.817165 8.88256L1.38285 8.31687C1.15246 8.08648 1.15246 7.71295 1.38285 7.48256L0.817166 6.91687ZM2.78285 6.91687C2.24004 6.37406 1.35997 6.37406 0.817166 6.91687L1.38285 7.48256C1.61324 7.25217 1.98678 7.25217 2.21716 7.48256L2.78285 6.91687Z" fill="#A6FFAF" mask="url(#path-1-outside-1_895_3024)"/>
</svg>
