<svg width="12" height="12" viewBox="0 0 12 12" fill="none" xmlns="http://www.w3.org/2000/svg">
<path fill-rule="evenodd" clip-rule="evenodd" d="M6 2.75C5.02388 2.75 3.37408 2.8305 2.65185 2.92589C2.00186 3.01173 1.51173 3.50186 1.42589 4.15185C1.3305 4.87408 1.25 5.02388 1.25 6C1.25 6.97612 1.3305 7.12592 1.42589 7.84815C1.51173 8.49814 2.00186 8.98827 2.65185 9.07411C3.37408 9.1695 5.02388 9.25 6 9.25C6.97612 9.25 8.62592 9.1695 9.34815 9.07411C9.99814 8.98827 10.4883 8.49814 10.5741 7.84815C10.6695 7.12592 10.75 6.97612 10.75 6C10.75 5.02388 10.6695 4.87408 10.5741 4.15185C10.4883 3.50186 9.99814 3.01173 9.34815 2.92589C8.62592 2.8305 6.97612 2.75 6 2.75ZM2.52092 1.9345C1.42252 2.07956 0.579562 2.92252 0.434496 4.02092C0.334767 4.77604 0.25 4.97064 0.25 6C0.25 7.02936 0.334767 7.22396 0.434496 7.97908C0.579562 9.07748 1.42252 9.92044 2.52092 10.0655C3.27604 10.1652 4.97064 10.25 6 10.25C7.02936 10.25 8.72396 10.1652 9.47908 10.0655C10.5775 9.92044 11.4204 9.07748 11.5655 7.97908C11.6652 7.22396 11.75 7.02936 11.75 6C11.75 4.97064 11.6652 4.77604 11.5655 4.02092C11.4204 2.92252 10.5775 2.07956 9.47908 1.9345C8.72396 1.83477 7.02936 1.75 6 1.75C4.97064 1.75 3.27604 1.83477 2.52092 1.9345Z" fill="white"/>
<path d="M5.77735 4.51841L7.376 5.58417C7.67285 5.78207 7.67285 6.21827 7.376 6.41622L5.77735 7.48192C5.4451 7.70347 5 7.46527 5 7.06592V4.93443C5 4.53509 5.4451 4.29689 5.77735 4.51841Z" fill="white"/>
</svg>
